<?xml version="1.0" encoding="UTF-8" standalone="no"?>
<!-- Created with Inkscape (http://www.inkscape.org/) -->

<svg
   width="42"
   height="42"
   id="svg2959"
   version="1.1"
   inkscape:version="1.2.2 (b0a8486541, 2022-12-01)"
   sodipodi:docname="baner_libreoffice_cymreig.svg"
   viewBox="0 0 42 42"
   xml:space="preserve"
   xmlns:inkscape="http://www.inkscape.org/namespaces/inkscape"
   xmlns:sodipodi="http://sodipodi.sourceforge.net/DTD/sodipodi-0.dtd"
   xmlns="http://www.w3.org/2000/svg"
   xmlns:svg="http://www.w3.org/2000/svg"
   xmlns:rdf="http://www.w3.org/1999/02/22-rdf-syntax-ns#"
   xmlns:cc="http://creativecommons.org/ns#"
   xmlns:dc="http://purl.org/dc/elements/1.1/"><defs
     id="defs2961" /><sodipodi:namedview
     id="base"
     pagecolor="#88d0af"
     bordercolor="#666666"
     borderopacity="1.0"
     inkscape:pageopacity="0"
     inkscape:pageshadow="2"
     inkscape:zoom="5.6568543"
     inkscape:cx="5.0381358"
     inkscape:cy="32.173358"
     inkscape:document-units="px"
     inkscape:current-layer="layer2"
     showgrid="false"
     inkscape:window-width="1366"
     inkscape:window-height="739"
     inkscape:window-x="0"
     inkscape:window-y="0"
     inkscape:window-maximized="1"
     inkscape:showpageshadow="0"
     inkscape:pagecheckerboard="1"
     inkscape:deskcolor="#6c6c6c"
     shape-rendering="crispEdges" /><metadata
     id="metadata2964"><rdf:RDF><cc:Work
         rdf:about=""><dc:format>image/svg+xml</dc:format><dc:type
           rdf:resource="http://purl.org/dc/dcmitype/StillImage" /></cc:Work></rdf:RDF></metadata><g
     inkscape:groupmode="layer"
     id="layer2"
     inkscape:label="outline"
     transform="translate(-3.4448961,0.92342526)"><path
       style="fill:none;fill-opacity:1;stroke:#000000;stroke-width:1.5;stroke-linecap:round;stroke-linejoin:round;stroke-dasharray:none;stroke-opacity:1;paint-order:markers stroke fill"
       d="M 7.6948961,40.326575 H 41.194896 v -26 l -14.375,-14.50000026 H 7.6948961 Z"
       id="path1707"
       sodipodi:nodetypes="cccccc"
       inkscape:label="body" /><path
       style="fill:#000000;fill-opacity:1;stroke:#000000;stroke-width:1.5;stroke-linecap:round;stroke-linejoin:round;stroke-dasharray:none;stroke-opacity:1"
       d="m 31.444896,-0.17342526 h 9.75 V 9.5765747 Z"
       id="path2206"
       sodipodi:nodetypes="cccc"
       inkscape:label="corner" /></g><path
     style="fill:#fffbfb;fill-opacity:1;stroke:none;stroke-width:1.03935px;stroke-linecap:butt;stroke-linejoin:miter;stroke-opacity:1"
     d="m 8.4448961,20.076426 31.9999999,1.49e-4 v -5.44 l -13.94,-14.06000026 -18.0599999,0.020649 z"
     id="path2930"
     sodipodi:nodetypes="cccccc"
     inkscape:label="white"
     transform="translate(-3.4448961,0.92342526)" /><rect
     style="opacity:1;fill:#00ab39;fill-opacity:1;stroke:none;stroke-width:0;stroke-linecap:round;stroke-linejoin:round;stroke-dasharray:none;stroke-opacity:1;paint-order:markers stroke fill"
     id="rect2260"
     width="32"
     height="19.499998"
     x="8.4448967"
     y="20.076574"
     ry="0"
     rx="0"
     inkscape:label="green"
     transform="translate(-3.4448961,0.92342526)" /><path
     id="_x37_9"
     class="st2"
     d="m 28.726457,11.476575 c -2.162971,1.138329 -4.35356,2.681617 -6.148929,4.34364 -0.07387,1.137095 0.926078,2.768257 -2.050011,2.7505 0,0 -0.413013,-0.86686 0.527385,-0.587638 -0.25412,-0.486488 -1.796048,-1.883602 0.2745,-0.974416 -0.279061,-0.906328 -1.780214,-1.80901 0.04105,-1.381322 0.289818,-0.674949 -1.432924,-1.170359 0.04339,-1.198198 -1.730391,-1.026157 -0.965611,-1.638938 -0.0875,-2.000737 -0.43898,-0.116759 -0.406583,-0.103748 -0.237804,-0.723542 -0.569875,0.243507 -1.496251,0.319857 -1.918048,0.760692 -1.953246,-0.294256 -2.567865,-0.103134 -2.744536,0.460859 0,0 -1.809791,-0.142501 -2.568538,0.889968 0.31345,0.123989 1.839719,-0.319812 2.098915,0.507728 0.749248,0.245587 0.903913,-1.050775 1.821944,0.07678 -1.469991,0.263964 -3.94903,0.165646 -3.94903,0.165646 1.47687,-0.409355 -0.906733,-0.352208 -1.691518,-1.170062 0.195222,1.174271 2.340396,3.141056 1.800363,1.816749 2.608468,-0.0617 1.812647,-0.502338 2.361298,1.206623 0.640538,-0.557571 0.492162,-0.995538 1.390968,-1.23076 -0.06117,1.193941 -1.251928,2.827006 -1.46234,3.912814 -0.464778,0.852241 0.149765,1.382218 -0.06,1.830716 -2.170653,-0.618134 -1.588487,-1.100331 -2.29613,-2.692952 0.281508,-0.0401 0.940035,-1.251506 0.34321,-1.865744 0,0 0.06241,0.343167 -0.42454,0.825115 -0.114692,-0.517425 -0.335077,-1.612805 -0.873026,-1.384651 0.630929,1.880911 -0.881946,0.557605 -1.108606,0.543234 -0.656199,-0.04158 0.237632,0.411447 0.153868,0.747327 0.136792,1.465382 1.1518,0.495418 0.574696,2.467155 -0.846553,1.03004 -0.169678,0.924467 -1.092592,1.459183 1.044566,0.580337 1.51363,-1.340211 1.51363,-1.340211 0.201191,1.851023 2.489839,2.488144 2.607966,4.795132 0.883855,-0.663996 -0.07674,-1.403889 2.105408,-1.366303 -0.927669,1.5133 -0.512244,1.913341 -1.291708,2.521989 -0.82783,0.707391 -2.363887,-0.900861 -2.797029,-0.005 1.06767,0.497617 0.740566,0.200748 -0.506663,1.032438 2.152551,-0.424092 0.237085,0.448673 0.564157,0.880665 0.258647,-0.254272 0.479089,-0.251251 1.267073,-0.174364 0.60421,-0.719463 1.649526,-0.401518 2.162364,-0.510226 1.197462,0.590684 3.951216,0.365859 0.518578,-0.452405 -0.447918,-0.712504 1.254634,-2.16451 1.856382,-2.857352 -0.01084,0.777339 0.194111,0.812835 0.580852,1.450649 -0.04944,-1.234523 1.52542,-1.651337 2.575059,-1.903504 0.588866,0.794908 1.405654,1.464038 2.384817,1.683655 -2.443783,2.512399 -2.530616,-0.872315 -3.925955,0.57298 3.43412,1.530618 -0.302943,-0.123809 -0.537693,1.103429 1.608343,0.05211 0.719252,0.443475 0.629479,0.904004 1.82161,-0.605178 2.66538,-0.873467 5.312803,0.124372 0.170954,-1.129778 -2.988813,-0.477079 -0.02086,-1.83872 1.490143,-1.534105 0.422002,-1.573413 2.189024,-0.998788 0.211069,-1.164229 -3.698264,-0.824474 -1.533517,-2.58366 1.978483,1.110699 2.906563,0.855843 4.080775,1.006338 1.040553,0.650874 0.609202,2.591333 -0.196314,2.843697 -1.273848,0.366364 -1.035929,-1.384759 -2.46957,-0.499385 1.446575,0.626797 -0.487647,0.682452 -0.341574,1.197555 0.59287,-0.09172 1.319645,-0.160273 0.778816,0.839686 1.66444,-0.0721 1.34688,-0.991482 2.420282,-0.310557 0.623851,-0.725684 4.949375,1.311228 1.239139,-1.164807 1.141399,-2.208382 -0.846033,-4.04513 1.443698,-2.587769 0.08028,-0.939937 -1.161167,-1.025379 -2.993492,-2.173243 2.063744,-0.03395 4.624268,-1.13323 3.845913,-3.579503 l 0.508582,-1.395386 c 2.214846,2.654259 0.06979,-1.400521 0.695182,-3.295371 -1.016473,1.788894 -4.692281,4.077736 -1.526825,3.082098 0.282835,-0.08898 -0.336112,0.823548 -0.336112,0.823548 -1.540054,-0.743026 -3.277838,-0.04754 -2.931257,1.366597 0.327374,0.364214 0.820447,1.152735 2.457079,0.511577 -1.787554,1.586378 -3.202448,0.07237 -5.335939,0.356299 0.268133,-1.096269 2.127438,-0.489053 1.904662,-0.877072 -0.965727,-1.68206 0.752548,-2.861487 1.87306,-3.42825 -2.160975,-0.481067 0.776739,-2.865298 0.776739,-2.865298 -0.805032,0.47915 -3.952386,1.916045 -4.343279,1.318922 -0.334691,-0.271055 -0.247149,-1.406198 0.07794,-1.763033 z m 4.825995,6.311721 c -0.06688,0.880022 -1.954543,0.409613 -0.888258,-0.245336 0.494033,-0.206119 0.820789,0.24929 0.888258,0.245336 z"
     style="fill:#d21034;stroke-width:0.105671"
     inkscape:label="ddraig"
     transform="translate(-3.4448961,0.92342526)" /><g
     id="g1391"
     transform="matrix(0.10845549,0,0,0.10845549,4.1199453,4.8178536)"
     inkscape:label="llygad"><path
       id="_x35_"
       class="st1"
       d="m 84.36,86.529999 c 0,0 0.19,3.82 3.58,3.9 0,0 2.69,0.01 3.92,-2.8 0,0 -2.22,-1.77 -7.5,-1.1 z"
       style="fill:#ffffff" /><path
       id="_x34_"
       d="m 87.94,90.679999 v 0 c 0,0 0,0 0,0 -3.6,-0.27 -3.85,-4.1 -3.85,-4.14 -0.01,-0.14 0.1,-0.26 0.24,-0.28 0.8,-0.1 1.58,-0.15 2.32,-0.15 3.69,0 5.31,1.25 5.38,1.31 0.1,0.08 0.13,0.2 0.08,0.31 -1.28,2.92 -4.05,2.95 -4.17,2.95 z m -3.29,-3.91 c 0.11,0.82 0.65,3.32 3.29,3.39 0.13,0 2.41,-0.04 3.57,-2.43 -0.49,-0.3 -2.04,-1.07 -4.87,-1.07 -0.63,-0.01 -1.3,0.03 -1.99,0.11 z" /><path
       id="_x33_"
       d="m 85.84,86.749999 c 0,0 0.4,1.99 1.97,2.2 0,0 1.13,0.23 2.56,-1.81 0,0.01 -2.18,-0.37 -4.53,-0.39 z" /><path
       id="_x32_"
       d="m 87.92,89.229999 v 0 c -0.11,0 -0.16,-0.01 -0.16,-0.01 -1.72,-0.24 -2.16,-2.33 -2.18,-2.41 -0.02,-0.08 0,-0.16 0.06,-0.23 0.05,-0.06 0.12,-0.11 0.21,-0.1 2.34,0.02 4.55,0.4 4.57,0.4 0.09,0.02 0.17,0.08 0.2,0.16 0.04,0.09 0.03,0.18 -0.03,0.26 -1.22,1.74 -2.27,1.93 -2.67,1.93 z m -1.72,-2.2 c 0.18,0.53 0.65,1.52 1.65,1.66 0.02,0 0.04,0.01 0.07,0.01 0.22,0 0.99,-0.1 1.96,-1.35 -0.69,-0.1 -2.13,-0.29 -3.68,-0.32 z" /><path
       id="_x31_"
       d="m 94.64,88.119999 c -0.12,0 -0.24,0 -0.36,-0.01 -1.08,-0.07 -2.14,-0.38 -3.16,-0.67 -0.59,-0.17 -1.2,-0.35 -1.8,-0.48 -0.59,-0.12 -1.18,-0.22 -1.76,-0.28 -1.94,-0.22 -3.83,-0.23 -5.62,-0.03 l -0.06,-0.54 c 1.83,-0.21 3.77,-0.2 5.74,0.03 0.6,0.07 1.2,0.17 1.81,0.29 0.62,0.13 1.24,0.31 1.84,0.48 0.99,0.29 2.02,0.59 3.04,0.65 0.47,0.03 0.93,-0.01 1.38,-0.11 1.42,-0.33 2.74,-0.84 3.71,-1.44 l 0.28,0.46 c -1.02,0.63 -2.39,1.17 -3.87,1.5 -0.38,0.11 -0.77,0.15 -1.17,0.15 z" /></g></svg>
